#!OML:ASF I:\Actors\actors\Patient Classification 1\Patient 1\Session 1\Subject1.ASF
:FULLY-SPECIFIED
:DEGREES
629
root -0.578405 17.5956 9.10556 9.80517 -2.42794 -6.69725
lowerback 5.91095 0.70629 6.91524
upperback -10.645 2.02565 1.0766
thorax -14.9708 0.251622 -3.0328
lowerneck -10.4 -0.957737 1.19421
upperneck 21.3664 -0.965546 -2.74386
head 8.31739 -0.640256 -1.21649
rclavicle 1.6524e-014 -1.78906e-014
rhumerus 22.0004 21.1678 -50.2286
rradius 141.741
rwrist -8.95579
rhand 12.6536 -43.2128
rfingers 7.12502
rthumb 37.6386 290.891
lclavicle 1.6524e-014 -1.78906e-014
lhumerus -45.2902 -35.1189 82.4632
lradius 136.065
lwrist -332.234
lhand -0.40286 -28.9523
lfingers 7.12502
lthumb 25.2044 -0.596662
rfemur -3.42073 20.6403 23.8109
rtibia 6.67008
rfoot -15.1586 -21.5452
rtoes 1.56743
lfemur 2.15145 -26.6408 -12.3886
ltibia 0.991768
lfoot -13.5464 38.1179
ltoes -4.3659
630
root -0.613277 17.6194 9.08857 9.66376 -0.586768 -6.55203
lowerback 6.40733 1.89862 7.66952
upperback -10.7874 3.68551 -0.0554736
thorax -15.1789 0.849463 -5.04533
lowerneck -10.9587 -2.49466 -0.531295
upperneck 22.1593 -2.96755 -1.7592
head 8.69364 -1.62524 -0.819927
rclavicle 3.56818e-014 2.82274e-014
rhumerus 25.2468 19.2789 -47.06
rradius 139.372
rwrist -8.83719
rhand 13.3235 -44.1252
rfingers 7.12502
rthumb 38.2713 290.15
lclavicle 3.56818e-014 2.82274e-014
lhumerus -42.4077 -35.6237 77.1503
lradius 136.276
lwrist -330.145
lhand -0.747611 -28.3635
lfingers 7.12502
lthumb 24.8741 0.0382243
rfemur -3.03143 20.172 24.0373
rtibia 6.41197
rfoot -15.5312 -22.5894
rtoes 2.62515
lfemur 1.07962 -26.1694 -11.6947
ltibia 1.65598
lfoot -12.5242 36.0638
ltoes -6.31956
631
root -0.652601 17.6423 9.06208 9.43177 1.33339 -6.36649
lowerback 6.92096 2.9281 8.31643
upperback -10.6834 5.11103 -1.08637
thorax -15.0336 1.38022 -6.84846
lowerneck -11.4243 -3.93743 -2.29937
upperneck 22.5814 -4.84432 -0.701344
head 8.99306 -2.53993 -0.388542
rclavicle 2.13694e-014 1.74931e-014
rhumerus 28.534 17.2868 -43.7102
rradius 135.891
rwrist -8.83847
rhand 13.2213 -45.2592
rfingers 7.12502
rthumb 38.1749 288.989
lclavicle 2.13694e-014 1.74931e-014
lhumerus -38.5643 -35.9368 71.137
lradius 136.109
lwrist -329.469
lhand -1.5581 -28.0941
lfingers 7.12502
lthumb 24.0972 0.412697
rfemur -2.48593 19.8707 24.2655
rtibia 6.00819
rfoot -16.0312 -23.8401
rtoes 4.3663
lfemur 0.197452 -26.2223 -11.172
ltibia 2.16861
lfoot -11.727 34.406
ltoes -7.71048
632
root -0.698423 17.6644 9.02864 9.07666 3.25927 -6.1927
lowerback 7.7423 3.73078 8.77397
upperback -10.4986 6.25369 -1.91558
thorax -14.9941 1.81075 -8.30333
lowerneck -11.7503 -5.16459 -3.86431
upperneck 22.6819 -6.4297 0.229879
head 9.19718 -3.30943 -0.00875639
rclavicle 8.99501e-014 1.43125e-014
rhumerus 31.19 15.2604 -41.2304
rradius 131.124
rwrist -9.95016
rhand 13.3525 -46.1001
rfingers 7.12502
rthumb 38.2987 288.183
lclavicle 8.99501e-014 1.43125e-014
lhumerus -34.7702 -35.7947 65.1089
lradius 135.888
lwrist -329.417
lhand -2.45591 -27.9238
lfingers 7.12502
lthumb 23.2361 0.694348
rfemur -1.7752 19.6759 24.576
rtibia 5.51602
rfoot -16.5338 -25.2151
rtoes 5.95938
lfemur -0.400086 -26.5893 -10.7566
ltibia 2.42947
lfoot -10.9822 33.0922
ltoes -9.19041
633
root -0.75152 17.6842 8.98523 8.60064 4.96838 -5.98703
lowerback 8.9652 4.35707 9.02858
upperback -10.2861 7.18573 -2.58182
thorax -15.2107 2.15224 -9.49213
lowerneck -11.9505 -6.17428 -5.23847
upperneck 22.5386 -7.72045 1.03945
head 9.3129 -3.93587 0.32818
rclavicle -1.90833e-014 1.51076e-014
rhumerus 33.7103 13.6189 -38.8784
rradius 125.067
rwrist -9.8349
rhand 13.9743 -47.4302
rfingers 7.12502
rthumb 38.8853 287.017
lclavicle -1.90833e-014 1.51076e-014
lhumerus -31.4339 -34.9035 59.3491
lradius 135.66
lwrist -329.225
lhand -2.42532 -28.0036
lfingers 7.12502
lthumb 23.2654 0.61088
rfemur -1.02947 19.6927 24.876
rtibia 5.11892
rfoot -17.0539 -26.6047
rtoes 7.44799
lfemur -0.669914 -27.1267 -10.4911
ltibia 2.43354
lfoot -10.2451 32.1343
ltoes -10.6931
634
root -0.808824 17.7062 8.96311 8.31167 7.08261 -6.80007
lowerback 9.54183 4.72322 10.274
upperback -10.0828 7.918 -2.86562
thorax -14.9914 2.3598 -10.6903
lowerneck -12.246 -7.01584 -6.41296
upperneck 22.3914 -8.76075 1.64997
head 9.44475 -4.44655 0.583122
rclavicle -1.41137e-014 9.54166e-015
rhumerus 36.0099 12.3973 -37.0399
rradius 117.005
rwrist -9.37615
rhand 13.19 -45.9624
rfingers 7.12502
rthumb 38.1453 288.278
lclavicle -1.41137e-014 9.54166e-015
lhumerus -29.1744 -33.8347 54.4953
lradius 135.874
lwrist -327.772
lhand -2.80714 -27.3813
lfingers 7.12502
lthumb 22.899 1.27895
rfemur -0.462223 19.4168 26.3883
rtibia 4.6389
rfoot -17.666 -27.9044
rtoes 9.2456
lfemur -1.28371 -27.3051 -8.77602
ltibia 2.22792
lfoot -9.33313 30.6762
ltoes -12.5729
